<?xml version="1.0" standalone="no"?>
<!DOCTYPE svg PUBLIC "-//W3C//DTD SVG 20010904//EN"
 "http://www.w3.org/TR/2001/REC-SVG-20010904/DTD/svg10.dtd">
<svg version="1.0" xmlns="http://www.w3.org/2000/svg"
 width="300.000000pt" height="91.000000pt" viewBox="0 0 300.000000 91.000000"
 preserveAspectRatio="xMidYMid meet">
<metadata>
Created by potrace 1.10, written by Peter Selinger 2001-2011
</metadata>
<g transform="translate(0.000000,91.000000) scale(0.100000,-0.100000)"
fill="#000000" stroke="none">
<path d="M275 755 c-24 -12 -25 -14 -5 -8 14 3 41 10 60 14 34 7 34 7 5 7 -16
1 -43 -5 -60 -13z"/>
<path d="M340 741 c8 -6 18 -7 23 -4 4 3 19 2 32 -1 23 -6 24 -10 28 -104 l3
-97 0 103 c-1 59 3 104 9 106 6 3 -17 5 -50 5 -40 0 -55 -2 -45 -8z"/>
<path d="M188 707 c-40 -30 -109 -127 -108 -152 1 -5 12 11 25 36 25 49 73
103 115 131 14 9 22 17 18 17 -3 1 -26 -14 -50 -32z"/>
<path d="M465 728 c11 -6 29 -21 40 -32 11 -12 16 -16 12 -9 -5 6 -5 18 -1 25
4 7 4 10 -1 6 -4 -4 -14 -1 -22 7 -8 8 -22 15 -31 15 -14 -1 -14 -3 3 -12z"/>
<path d="M363 650 c0 -47 2 -66 4 -42 2 23 2 61 0 85 -2 23 -4 4 -4 -43z"/>
<path d="M572 671 c24 -22 53 -58 63 -80 10 -23 20 -39 22 -37 15 15 -96 156
-123 156 -4 0 13 -18 38 -39z"/>
<path d="M994 694 c25 -14 26 -18 14 -30 -12 -12 -18 -12 -45 1 -19 10 -42 13
-57 9 -30 -7 -66 -48 -66 -75 0 -26 20 -67 37 -73 9 -4 7 3 -6 20 -53 68 13
148 90 110 24 -12 34 -13 50 -3 10 6 19 15 19 19 0 9 -42 38 -55 38 -5 -1 3
-8 19 -16z"/>
<path d="M1322 666 c-2 -39 1 -47 10 -38 13 13 56 16 83 6 10 -4 23 -21 31
-38 8 -19 13 -24 14 -13 0 10 -11 29 -26 43 -20 21 -33 25 -64 22 -38 -3 -39
-3 -43 32 -3 28 -4 25 -5 -14z"/>
<path d="M1862 593 l-2 -123 30 0 c28 0 30 2 30 40 l0 40 54 0 c51 0 106 26
106 50 0 5 -11 -2 -25 -15 -20 -21 -34 -25 -85 -25 l-60 0 0 -40 c0 -33 -3
-40 -20 -40 -18 0 -20 8 -23 118 l-3 117 -2 -122z"/>
<path d="M342 646 c-2 -44 -3 -47 -19 -35 -17 12 -17 12 -1 -6 24 -26 30 -16
25 41 l-3 49 -2 -49z"/>
<path d="M561 645 c15 -17 36 -46 48 -65 11 -19 21 -30 21 -24 0 15 -52 85
-76 104 -10 8 -7 1 7 -15z"/>
<path d="M1912 633 l1 -38 4 33 4 34 54 -4 c29 -1 51 0 48 5 -2 4 -29 7 -59 7
l-54 0 2 -37z"/>
<path d="M541 624 c20 -21 44 -52 53 -69 10 -16 14 -21 11 -10 -10 31 -44 78
-74 99 -19 14 -17 9 10 -20z"/>
<path d="M1040 638 c1 -16 39 -87 39 -73 0 6 -6 21 -14 35 -20 35 -19 38 13
43 25 4 25 4 -5 6 -21 0 -33 -4 -33 -11z"/>
<path d="M1186 642 c-3 -5 9 -6 26 -4 28 4 29 3 19 -16 -6 -11 -11 -24 -11
-29 1 -4 7 3 14 17 8 14 12 28 10 32 -7 11 -51 10 -58 0z"/>
<path d="M1516 629 c-14 -11 -26 -24 -26 -29 0 -5 11 2 25 15 29 30 87 34 125
9 l25 -16 -24 21 c-31 28 -90 28 -125 0z"/>
<path d="M1705 642 c-3 -3 -5 -43 -5 -89 l0 -83 30 0 c30 0 30 1 30 55 0 41 4
56 18 64 9 6 12 11 7 11 -22 0 -35 -26 -35 -72 0 -41 -3 -48 -20 -48 -18 0
-20 7 -20 80 0 73 2 80 20 80 11 0 20 -5 20 -12 0 -9 3 -9 12 0 14 14 68 16
68 3 0 -5 -7 -17 -16 -25 -8 -9 -11 -16 -5 -16 14 0 34 38 26 50 -6 9 -120 11
-130 2z"/>
<path d="M2119 621 c-20 -20 -29 -39 -29 -61 0 -47 47 -90 97 -90 38 0 83 22
83 41 0 5 -9 0 -20 -11 -29 -29 -94 -27 -125 5 -54 53 -15 135 65 135 47 0 80
-27 80 -65 0 -24 -3 -25 -60 -25 -60 0 -70 -6 -48 -28 16 -16 43 -15 58 3 7 8
23 15 36 15 20 0 24 5 24 30 0 77 -103 109 -161 51z"/>
<path d="M2332 627 c-12 -13 -24 -38 -27 -57 l-5 -35 11 35 c19 61 33 70 110
68 l69 -1 0 -79 c0 -71 -2 -78 -20 -78 -11 0 -20 5 -20 12 0 9 -3 9 -12 0 -7
-7 -29 -12 -49 -12 -29 0 -43 6 -58 26 -12 15 -21 22 -21 15 0 -6 9 -20 20
-31 16 -16 32 -19 95 -18 l75 1 0 87 0 87 -74 1 c-64 1 -76 -2 -94 -21z"/>
<path d="M2556 621 c-16 -16 -26 -35 -23 -43 4 -9 6 -9 6 3 2 27 44 57 86 62
l40 4 -41 1 c-33 2 -45 -3 -68 -27z"/>
<path d="M2749 621 c-20 -20 -29 -39 -29 -61 0 -47 47 -90 97 -90 38 0 83 22
83 41 0 5 -9 0 -20 -11 -29 -29 -94 -27 -125 5 -54 53 -15 135 65 135 47 0 80
-27 80 -65 0 -24 -2 -25 -67 -25 -65 0 -66 0 -48 -20 21 -24 48 -26 65 -5 7 8
23 15 36 15 20 0 24 5 24 30 0 77 -103 109 -161 51z"/>
<path d="M2680 627 c11 -15 11 -20 0 -27 -7 -4 -23 -4 -35 2 -16 7 -28 7 -41
-1 -17 -11 -17 -11 3 -6 12 3 30 2 40 -4 12 -6 26 -5 41 3 l23 12 -23 20 c-20
16 -21 17 -8 1z"/>
<path d="M273 605 c0 -15 5 -25 14 -25 10 0 13 6 9 16 -3 9 -6 20 -6 25 0 5
-4 9 -9 9 -5 0 -8 -11 -8 -25z"/>
<path d="M795 580 c3 -36 11 -52 39 -77 31 -29 43 -33 90 -33 63 0 116 31 95
56 -13 16 -45 19 -54 4 -3 -6 1 -7 9 -4 9 3 24 3 34 -1 15 -6 15 -8 -7 -26
-16 -13 -39 -19 -77 -19 -69 0 -110 33 -124 100 l-9 45 4 -45z"/>
<path d="M1337 592 c-10 -10 -17 -26 -17 -35 0 -21 27 -47 48 -47 12 0 9 4 -8
13 -48 24 -32 84 19 72 20 -4 22 -3 11 5 -22 14 -35 12 -53 -8z"/>
<path d="M1552 598 c-21 -21 -13 -28 28 -28 22 0 40 4 40 8 0 14 -23 32 -40
32 -9 0 -21 -5 -28 -12z"/>
<path d="M2162 598 c-21 -21 -13 -28 28 -28 39 0 52 12 28 26 -7 4 -8 3 -4 -4
5 -8 -3 -12 -23 -12 -37 0 -40 7 -8 20 13 5 16 9 7 9 -9 1 -21 -4 -28 -11z"/>
<path d="M2364 585 c-15 -23 -15 -27 0 -50 19 -30 46 -32 69 -7 22 24 21 45
-1 65 -26 24 -49 21 -68 -8z m70 -7 c8 -13 8 -23 0 -35 -16 -26 -51 -28 -64
-4 -25 47 36 83 64 39z"/>
<path d="M2792 598 c-21 -21 -13 -28 28 -28 39 0 52 12 28 26 -7 4 -8 3 -4 -4
5 -8 -3 -12 -23 -12 -37 0 -40 7 -8 20 13 5 16 9 7 9 -9 1 -21 -4 -28 -11z"/>
<path d="M1670 562 c0 -8 -22 -12 -65 -12 -65 0 -75 -6 -53 -28 16 -16 43 -15
58 3 7 8 23 15 36 15 23 0 41 16 30 27 -3 4 -6 1 -6 -5z"/>
<path d="M96 528 c-3 -13 -5 -48 -4 -78 1 -52 1 -51 8 20 8 79 7 96 -4 58z"/>
<path d="M2531 539 c-1 -9 11 -28 25 -43 34 -33 99 -36 132 -6 26 25 26 26 6
34 -9 3 -12 2 -9 -5 13 -19 -17 -39 -59 -39 -42 0 -75 22 -89 60 -5 13 -6 12
-6 -1z"/>
<path d="M1644 503 c-6 -10 -31 -20 -60 -24 l-49 -6 41 -2 c39 -1 98 29 84 43
-3 3 -10 -2 -16 -11z"/>
<path d="M123 455 c0 -33 2 -45 4 -27 2 18 2 45 0 60 -2 15 -4 0 -4 -33z"/>
<path d="M1161 459 c-18 -46 -24 -51 -46 -47 -14 3 -25 1 -25 -3 0 -5 13 -9
29 -9 25 0 31 6 50 52 12 28 20 53 18 55 -2 2 -14 -20 -26 -48z"/>
<path d="M1430 495 c-14 -17 -85 -21 -95 -5 -4 7 -11 8 -18 2 -7 -6 -21 -12
-32 -15 -15 -4 -13 -5 8 -6 15 0 27 4 27 11 0 9 3 9 12 0 20 -20 83 -15 103 8
10 11 16 20 13 20 -3 0 -11 -7 -18 -15z"/>
<path d="M314 475 c5 -16 -13 -40 -78 -104 -75 -75 -85 -82 -94 -65 -11 21
-12 24 -12 57 -1 21 -1 21 -12 3 -8 -15 -8 -21 0 -24 7 -2 10 -7 7 -12 -3 -4
3 -18 13 -29 17 -22 17 -21 106 68 77 78 87 91 77 107 -11 18 -12 18 -7 -1z"/>
<path d="M257 362 c-48 -48 -87 -93 -87 -99 0 -6 15 -21 33 -33 l32 -22 -27
24 c-16 13 -28 27 -28 31 0 7 20 28 124 125 31 29 56 55 56 58 0 15 -25 -6
-103 -84z"/>
<path d="M477 436 c-8 -19 98 -122 108 -105 5 7 4 10 -2 6 -5 -3 -31 16 -57
42 -31 31 -43 50 -35 53 9 3 10 6 2 11 -6 4 -13 1 -16 -7z"/>
<path d="M275 330 l-69 -75 74 72 c41 40 72 74 70 75 -3 2 -36 -30 -75 -72z"/>
<path d="M464 376 c-8 -22 6 -37 48 -50 45 -15 44 -41 -2 -41 -27 0 -35 5 -38
20 -7 35 -23 45 -73 45 -32 0 -49 4 -49 12 0 7 -25 -12 -55 -42 -49 -48 -53
-55 -37 -66 9 -8 21 -14 26 -14 6 0 1 7 -10 14 -18 14 -18 16 21 54 40 39 41
39 100 33 53 -5 60 -9 65 -31 3 -14 16 -30 28 -36 12 -6 21 -13 19 -15 -1 -2
3 1 9 8 6 7 13 10 16 8 3 -3 11 2 18 10 12 14 7 23 -33 63 -39 39 -47 43 -53
28z"/>
<path d="M615 349 c-4 -12 -26 -43 -48 -68 l-41 -46 38 35 c38 35 72 88 63 97
-3 2 -8 -5 -12 -18z"/>
<path d="M1855 360 l-1070 -5 1078 -3 c717 -1 1076 1 1072 8 -3 6 -7 9 -8 8
-1 -2 -483 -5 -1072 -8z"/>
<path d="M90 334 c0 -28 91 -129 135 -150 17 -8 21 -9 11 -2 -46 31 -92 76
-118 117 -15 25 -28 41 -28 35z"/>
<path d="M919 308 c0 -2 -2 -27 -2 -55 l-2 -53 48 0 c35 0 47 4 45 13 -3 6
-13 13 -24 14 -18 3 -18 2 1 -6 16 -8 12 -10 -20 -10 l-40 -1 0 45 -1 45 37 0
c21 0 40 -5 42 -10 3 -6 4 -5 3 2 -2 11 -84 26 -87 16z"/>
<path d="M1029 308 c0 -2 -2 -27 -2 -55 -2 -49 0 -53 21 -53 19 0 21 4 16 26
-5 21 -4 25 6 19 9 -5 11 -4 6 3 -13 21 -28 13 -24 -13 3 -15 1 -25 -6 -25
-14 0 -15 82 -1 92 6 5 5 8 -2 8 -7 0 -13 -1 -14 -2z"/>
<path d="M1115 303 c13 -11 13 -93 0 -93 -6 0 -17 6 -25 13 -12 10 -12 9 -1
-5 7 -10 21 -18 30 -18 13 0 16 10 15 52 0 36 -5 53 -15 56 -8 2 -10 0 -4 -5z"/>
<path d="M1257 303 c-3 -5 13 -7 35 -5 27 3 44 0 50 -9 8 -11 9 -11 5 1 -4 16
-81 27 -90 13z"/>
<path d="M1369 308 c0 -2 -2 -27 -2 -55 -2 -49 0 -53 22 -53 16 0 21 4 18 14
-3 8 -1 17 6 19 7 2 5 3 -3 2 -8 0 -14 -7 -12 -13 1 -7 -4 -12 -10 -12 -9 0
-13 16 -13 45 0 43 0 44 35 48 l35 4 -37 1 c-21 1 -38 1 -39 0z"/>
<path d="M1666 302 c-2 -4 0 -23 5 -42 l9 -35 -4 37 c-5 37 -4 37 37 41 l42 4
-42 1 c-23 1 -44 -1 -47 -6z"/>
<path d="M1817 303 c-3 -5 13 -7 35 -5 27 3 44 0 50 -9 8 -11 9 -11 5 1 -4 16
-81 27 -90 13z"/>
<path d="M2052 294 c-14 -10 -21 -24 -21 -42 l2 -27 4 28 c5 33 35 51 71 43
20 -5 23 -4 12 4 -21 14 -42 12 -68 -6z"/>
<path d="M2155 299 c-4 -6 -4 -13 -1 -16 3 -4 6 -1 6 5 0 16 67 15 73 0 3 -8
6 -6 6 5 1 13 -7 17 -38 17 -22 0 -43 -5 -46 -11z"/>
<path d="M2262 263 l1 -48 4 42 c3 29 9 43 21 46 12 3 11 5 -5 6 -21 1 -23 -3
-21 -46z"/>
<path d="M2365 300 c-4 -6 -4 -14 -1 -17 3 -4 6 -1 6 5 0 7 6 12 14 12 11 0
13 -10 9 -40 -5 -36 -3 -40 16 -40 11 0 21 4 21 10 0 5 -7 7 -16 3 -13 -5 -15
1 -12 33 2 30 -1 39 -14 42 -9 2 -19 -2 -23 -8z"/>
<path d="M2469 308 c0 -2 -2 -27 -2 -55 l-2 -53 48 0 c35 0 47 4 45 13 -3 6
-15 13 -29 14 l-24 2 25 -8 c22 -8 20 -9 -15 -10 l-40 -1 0 45 -1 45 37 0 c21
0 40 -5 42 -10 3 -6 4 -5 3 2 -2 11 -84 26 -87 16z"/>
<path d="M2645 300 c-4 -6 -4 -14 -1 -17 3 -4 6 -1 6 5 0 7 6 12 13 12 8 0 12
-15 12 -45 0 -49 -8 -54 -39 -27 -21 17 -21 17 -2 -5 11 -13 26 -23 35 -23 23
0 22 104 -1 108 -9 2 -19 -2 -23 -8z"/>
<path d="M2821 293 c0 -11 3 -13 6 -5 2 6 20 12 38 12 18 0 36 -6 38 -12 3 -8
6 -6 6 5 1 14 -8 17 -44 17 -36 0 -45 -3 -44 -17z"/>
<path d="M599 272 c-14 -15 -38 -38 -55 -51 -34 -26 -12 -17 29 13 24 17 64
66 54 66 -2 0 -15 -13 -28 -28z"/>
<path d="M940 269 c0 -5 12 -9 28 -10 27 -1 27 -1 3 -8 -14 -4 -26 -12 -27
-19 -1 -7 0 -8 3 -2 2 5 16 10 30 10 15 0 23 5 21 12 -5 14 -58 30 -58 17z"/>
<path d="M1180 256 c0 -13 -3 -31 -6 -40 -5 -12 0 -16 20 -16 14 0 26 4 26 9
0 5 -8 7 -18 4 -16 -4 -18 1 -14 31 2 20 1 36 -2 36 -3 0 -6 -11 -6 -24z"/>
<path d="M1258 245 c-2 -20 -2 -38 1 -40 2 -3 24 -5 49 -5 50 0 55 21 6 31
l-29 6 28 5 c25 5 25 5 2 4 -36 -1 -35 -20 1 -27 26 -6 25 -7 -11 -8 l-41 -1
4 35 c2 19 2 35 -1 35 -3 0 -7 -16 -9 -35z"/>
<path d="M1690 270 c0 -5 12 -11 28 -13 l27 -4 -27 -2 c-20 -1 -28 -6 -27 -18
0 -11 3 -13 6 -5 2 6 16 12 30 12 15 0 23 5 21 12 -5 14 -58 30 -58 18z"/>
<path d="M2180 270 c0 -5 12 -11 28 -13 l27 -4 -27 -2 c-18 0 -28 -7 -28 -16
0 -10 9 -15 28 -14 l27 1 -25 8 -25 8 28 1 c18 1 27 6 25 13 -5 14 -58 30 -58
18z"/>
<path d="M2490 269 c0 -5 12 -9 28 -10 27 -1 27 -1 3 -8 -14 -4 -26 -12 -27
-19 -1 -7 0 -8 3 -2 2 5 16 10 30 10 15 0 23 5 21 12 -5 14 -58 30 -58 17z"/>
<path d="M2850 270 c0 -5 12 -11 28 -13 l27 -4 -27 -2 c-18 0 -28 -7 -28 -16
0 -11 10 -15 33 -14 l32 2 -30 5 c-28 5 -28 5 -7 11 13 3 23 11 22 16 -1 12
-50 27 -50 15z"/>
<path d="M609 244 c-13 -14 -46 -39 -74 -55 -27 -16 -45 -29 -39 -29 16 0 96
54 123 84 14 14 22 26 19 26 -2 0 -15 -12 -29 -26z"/>
<path d="M2603 234 c4 -21 1 -25 -14 -21 -11 3 -19 1 -19 -4 0 -5 11 -9 24 -9
19 0 23 5 22 30 -1 16 -5 30 -10 30 -4 0 -6 -12 -3 -26z"/>
<path d="M312 228 c7 -4 40 -7 73 -7 73 1 62 6 -23 11 -34 3 -57 1 -50 -4z"/>
<path d="M1930 225 c-17 -21 -4 -32 20 -17 16 10 24 10 40 0 26 -17 38 -2 15
20 -18 16 -18 16 -6 0 15 -20 2 -25 -17 -6 -9 9 -15 9 -24 0 -17 -17 -33 -15
-18 3 7 8 10 15 7 15 -2 0 -10 -7 -17 -15z"/>
<path d="M2340 226 c0 -10 -14 -16 -42 -19 l-43 -4 48 -1 c41 -2 47 1 47 18 0
11 -2 20 -5 20 -3 0 -5 -6 -5 -14z"/>
<path d="M2440 224 c0 -13 -8 -15 -40 -12 -22 2 -40 0 -40 -4 0 -5 20 -8 45
-8 38 0 45 3 45 20 0 11 -2 20 -5 20 -3 0 -5 -7 -5 -16z"/>
<path d="M1880 222 c20 -5 16 -7 -20 -12 l-45 -7 48 -1 c35 -2 48 2 45 11 -3
6 -15 12 -29 13 l-24 1 25 -5z"/>
<path d="M2150 218 c0 -15 8 -18 48 -16 47 1 47 1 7 5 -22 3 -43 10 -47 16 -5
8 -8 6 -8 -5z"/>
<path d="M2820 218 c0 -15 8 -18 48 -16 47 1 47 1 7 5 -22 3 -43 10 -47 16 -5
8 -8 6 -8 -5z"/>
<path d="M358 143 c18 -2 45 -2 60 0 15 2 0 4 -33 4 -33 0 -45 -2 -27 -4z"/>
<path d="M1322 143 c295 -2 781 -2 1080 0 299 1 57 2 -537 2 -594 0 -838 -1
-543 -2z"/>
</g>
</svg>
